# xmcd
#
# Track frame offsets:
#	150
#	23592
#	38816
#	49666
#	62460
#	77188
#	104111
#	120425
#	133752
#	146600
#	158323
#	170735
#	199557
#	211699
#	235145
#
# Disc length: 3422 seconds
#
# Revision: 1
# Processed by: cddbd v1.4PL0 Copyright (c) Steve Scherf et al.
# Submitted via: audiograbber 1.80.04
#
DISCID=c10d5c0f
DTITLE=Midnight Train - Midnight Streamline
DYEAR=1999
DGENRE=Country
TTITLE0=I walk the line - on the road again - Truck driving man
TTITLE1=Southern streamline
TTITLE2=Climb that mountain high
TTITLE3=Thats where I belong
TTITLE4=Poor boy blues
TTITLE5=Amazing grace - Glory halleluja - Country roads - Oh Susanna
TTITLE6=Wild angels
TTITLE7=I feel better
TTITLE8=Guitars Cadillacs
TTITLE9=Midnight Train
TTITLE10=Eight days a week
TTITLE11=Goodhearted woman - Ruby - Some broken heart - Rose in Paradise
TTITLE12=Blue moon nights
TTITLE13=Wonderful tonight
TTITLE14=My rifle, my pony and me
EXTD=
EXTT0=
EXTT1=
EXTT2=
EXTT3=
EXTT4=
EXTT5=
EXTT6=
EXTT7=
EXTT8=
EXTT9=
EXTT10=
EXTT11=
EXTT12=
EXTT13=
EXTT14=
PLAYORDER=
